<?xml version="1.0" standalone="no"?>
<!DOCTYPE svg PUBLIC "-//W3C//DTD SVG 20010904//EN"
 "http://www.w3.org/TR/2001/REC-SVG-20010904/DTD/svg10.dtd">
<svg version="1.0" xmlns="http://www.w3.org/2000/svg"
 width="256.000000pt" height="256.000000pt" viewBox="0 0 256.000000 256.000000"
 preserveAspectRatio="xMidYMid meet">

<g transform="translate(0.000000,256.000000) scale(0.100000,-0.100000)"
fill="#000000" stroke="none">
<path d="M372 2069 c-45 -13 -108 -79 -121 -126 -7 -24 -11 -221 -11 -550 l0
-513 -89 0 c-66 0 -92 -4 -101 -15 -9 -10 -11 -49 -9 -133 4 -109 6 -122 31
-159 15 -22 44 -51 65 -64 l38 -24 1105 0 1105 0 38 24 c21 13 50 42 65 64 25
37 27 50 31 159 2 84 0 123 -9 133 -9 11 -35 15 -101 15 l-88 0 -3 533 -3 533
-27 41 c-15 22 -44 51 -65 64 l-38 24 -890 2 c-544 1 -903 -2 -923 -8z m1748
-629 l0 -440 -840 0 -840 0 0 440 0 440 840 0 840 0 0 -440z m-1096 -707 c10
-37 22 -73 28 -80 15 -19 441 -19 456 0 6 7 18 43 28 80 l16 67 445 0 445 0
-3 -85 c-4 -80 -6 -86 -37 -117 l-32 -33 -1079 -3 -1078 -2 -34 23 c-47 31
-59 60 -59 145 l0 72 444 0 444 0 16 -67z"/>
<path d="M859 1783 c-57 -35 -59 -47 -59 -343 0 -298 2 -309 60 -344 25 -14
75 -16 420 -16 345 0 395 2 420 16 58 35 60 46 60 344 0 298 -2 309 -60 344
-25 14 -75 16 -422 16 -346 -1 -396 -2 -419 -17z m436 -295 c47 -23 85 -45 85
-48 0 -5 -165 -90 -175 -90 -3 0 -5 41 -5 90 0 50 2 90 5 90 3 0 43 -19 90
-42z"/>
<path d="M172 748 c-6 -6 -12 -20 -12 -29 0 -34 24 -40 165 -37 119 3 139 5
149 21 8 12 8 22 0 35 -10 15 -31 17 -150 20 -100 2 -143 -1 -152 -10z"/>
<path d="M532 748 c-33 -33 -2 -71 54 -66 43 4 65 28 48 56 -13 21 -84 28
-102 10z"/>
</g>
</svg>
